<svg width="52" height="52" viewBox="0 0 52 52" fill="none" xmlns="http://www.w3.org/2000/svg">
<path d="M25.8702 4.78857L20.6485 16.9436H15.4268C14.5602 16.9436 13.7152 17.0086 12.8918 17.1819L15.0585 11.9819L15.1452 11.7869L15.2752 11.4402C15.3402 11.2886 15.3835 11.1586 15.4485 11.0502C17.9619 5.22191 20.7785 3.40191 25.8702 4.78857Z" fill="url(#paint0_linear_221_220)"/>
<path d="M40.5818 17.5286L40.5385 17.5069C39.2385 17.1386 37.9168 16.9436 36.5735 16.9436H23.0102L27.8852 5.61191L27.9502 5.46024C28.2535 5.56857 28.5785 5.72024 28.9035 5.82857L33.6919 7.84357C36.3569 8.94857 38.2202 10.0969 39.3685 11.4836C39.5635 11.7436 39.7369 11.9819 39.9102 12.2636C40.1052 12.5669 40.2569 12.8702 40.3435 13.1952C40.4302 13.3902 40.4952 13.5636 40.5385 13.7586C40.8635 14.8636 40.8852 16.1202 40.5818 17.5286Z" fill="url(#paint1_linear_221_220)"/>
<path d="M27.1269 38.2636H27.6685C28.3185 38.2636 28.8602 37.6786 28.8602 36.9636C28.8602 36.0536 28.6002 35.9236 28.0368 35.7069L27.1269 35.3819V38.2636Z" fill="url(#paint2_linear_221_220)"/>
<path d="M39.6285 20.6269C38.6535 20.3452 37.6352 20.1936 36.5735 20.1936H15.4268C13.9535 20.1936 12.5668 20.4752 11.2668 21.0386C7.49685 22.6636 4.85352 26.4119 4.85352 30.7669V34.9919C4.85352 35.5119 4.89685 36.0102 4.96185 36.5302C5.43852 43.4202 9.12185 47.1036 16.0118 47.5586C16.5102 47.6236 17.0085 47.6669 17.5502 47.6669H34.4502C42.4669 47.6669 46.6918 43.8536 47.1035 36.2702C47.1252 35.8586 47.1469 35.4252 47.1469 34.9919V30.7669C47.1469 25.9786 43.9619 21.9486 39.6285 20.6269ZM28.7735 33.5836C29.7702 33.9302 31.1135 34.6669 31.1135 36.9636C31.1135 38.9352 29.5752 40.5169 27.6685 40.5169H27.1269V40.9936C27.1269 41.6219 26.6285 42.1202 26.0002 42.1202C25.3719 42.1202 24.8735 41.6219 24.8735 40.9936V40.5169H24.6785C22.5985 40.5169 20.8869 38.7619 20.8869 36.5952C20.8869 35.9669 21.3852 35.4686 22.0135 35.4686C22.6418 35.4686 23.1402 35.9669 23.1402 36.5952C23.1402 37.5052 23.8335 38.2636 24.6785 38.2636H24.8735V34.6019L23.2269 34.0169C22.2302 33.6702 20.8869 32.9336 20.8869 30.6369C20.8869 28.6652 22.4252 27.0836 24.3319 27.0836H24.8735V26.6069C24.8735 25.9786 25.3719 25.4802 26.0002 25.4802C26.6285 25.4802 27.1269 25.9786 27.1269 26.6069V27.0836H27.3218C29.4018 27.0836 31.1135 28.8386 31.1135 31.0052C31.1135 31.6336 30.6152 32.1319 29.9869 32.1319C29.3585 32.1319 28.8602 31.6336 28.8602 31.0052C28.8602 30.0952 28.1668 29.3369 27.3218 29.3369H27.1269V32.9986L28.7735 33.5836Z" fill="url(#paint3_linear_221_220)"/>
<path d="M23.1402 30.6369C23.1402 31.5469 23.4002 31.6769 23.9635 31.8936L24.8735 32.2186V29.3369H24.3319C23.6602 29.3369 23.1402 29.9219 23.1402 30.6369Z" fill="url(#paint4_linear_221_220)"/>
<defs>
<linearGradient id="paint0_linear_221_220" x1="47.1468" y1="47.6669" x2="-1.03087" y2="39.6327" gradientUnits="userSpaceOnUse">
<stop stop-color="#00796D"/>
<stop offset="1" stop-color="#38C682"/>
</linearGradient>
<linearGradient id="paint1_linear_221_220" x1="47.1468" y1="47.6669" x2="-1.03087" y2="39.6327" gradientUnits="userSpaceOnUse">
<stop stop-color="#00796D"/>
<stop offset="1" stop-color="#38C682"/>
</linearGradient>
<linearGradient id="paint2_linear_221_220" x1="47.1468" y1="47.6669" x2="-1.03087" y2="39.6327" gradientUnits="userSpaceOnUse">
<stop stop-color="#00796D"/>
<stop offset="1" stop-color="#38C682"/>
</linearGradient>
<linearGradient id="paint3_linear_221_220" x1="47.1468" y1="47.6669" x2="-1.03087" y2="39.6327" gradientUnits="userSpaceOnUse">
<stop stop-color="#00796D"/>
<stop offset="1" stop-color="#38C682"/>
</linearGradient>
<linearGradient id="paint4_linear_221_220" x1="47.1468" y1="47.6669" x2="-1.03087" y2="39.6327" gradientUnits="userSpaceOnUse">
<stop stop-color="#00796D"/>
<stop offset="1" stop-color="#38C682"/>
</linearGradient>
</defs>
</svg>
